<svg width="84" height="24" viewBox="0 0 84 24" fill="none" xmlns="http://www.w3.org/2000/svg">
<path d="M9.19485 9.81055L8.80005 11.3193C9.24777 11.4249 10.6287 11.8593 10.8522 11.0057C11.0857 10.1153 9.64341 9.92015 9.19485 9.81055Z" fill="#404F55"/>
<path d="M8.60075 12.0801L8.16479 13.7441C8.70239 13.8713 10.3614 14.3785 10.6067 13.4401C10.8629 12.4617 9.13835 12.2081 8.60075 12.0801Z" fill="#404F55"/>
<path d="M10.9798 5.31877C9.59221 4.98931 8.13317 5.05913 6.78721 5.51939C5.44126 5.97965 4.26884 6.80969 3.4182 7.90454C2.56757 8.9994 2.07693 10.3099 2.00833 11.6703C1.93972 13.0307 2.29624 14.38 3.03279 15.5474C3.76934 16.7149 4.85285 17.6481 6.14629 18.2291C7.43974 18.8101 8.88504 19.0127 10.2994 18.8114C11.7138 18.6101 13.0337 18.0139 14.0923 17.0982C15.1509 16.1824 15.9006 14.9883 16.2466 13.6668C16.4764 12.7893 16.5224 11.8773 16.382 10.9829C16.2417 10.0884 15.9177 9.22908 15.4287 8.45389C14.9396 7.6787 14.295 7.00285 13.5316 6.46493C12.7683 5.927 11.9012 5.53754 10.9798 5.31877ZM12.4204 11.0196C12.3163 11.69 11.9257 12.0148 11.4074 12.1292C12.1189 12.482 12.4809 13.0236 12.1365 13.962C11.7081 15.1268 10.6909 15.2252 9.33762 14.982L9.00918 16.2348L8.21538 16.0468L8.53962 14.81C8.33382 14.7612 8.12382 14.71 7.9071 14.65L7.58202 15.8924L6.7899 15.7036L7.11834 14.4484C6.9327 14.4028 6.74454 14.3548 6.55218 14.3092L5.51982 14.0644L5.91378 13.2004C5.91378 13.2004 6.50178 13.3484 6.49002 13.3372C6.52631 13.3484 6.56456 13.3526 6.60257 13.3496C6.64058 13.3466 6.6776 13.3365 6.71149 13.3199C6.74538 13.3032 6.77547 13.2803 6.80003 13.2526C6.82459 13.2248 6.84313 13.1926 6.85458 13.158L7.37286 11.1764L7.45686 11.1964C7.42955 11.1861 7.40147 11.1778 7.37286 11.1716L7.74498 9.76037C7.75422 9.60037 7.69626 9.39717 7.37454 9.32037C7.38714 9.31317 6.7983 9.18437 6.7983 9.18437L7.00998 8.37717L8.10198 8.63717C8.26998 8.67637 8.43798 8.71717 8.60598 8.75077L8.93022 7.50997L9.72402 7.69797L9.40482 8.91477C9.61762 8.96064 9.82958 9.00811 10.0407 9.05717L10.3574 7.84837L11.1503 8.03637L10.8295 9.28037C11.8316 9.60997 12.5641 10.1028 12.4204 11.0196Z" fill="#404F55"/>
<path d="M23.195 9.2796C23.7182 9.2676 24.2375 9.3688 24.7137 9.5756C25.1269 9.763 25.4906 10.0364 25.778 10.3756C26.0655 10.7277 26.2768 11.1307 26.3996 11.5612C26.5362 12.0382 26.6035 12.5308 26.5995 13.0252C26.6041 14.5676 25.9812 16.0516 24.8615 17.166C24.3184 17.6978 23.6716 18.1237 22.9573 18.4196C22.2076 18.7314 21.3972 18.889 20.5792 18.882C20.4692 18.882 20.2751 18.882 20.0013 18.8732C19.6864 18.8633 19.3723 18.8366 19.0605 18.7932C18.6815 18.7412 18.3055 18.6707 17.9341 18.582C17.5454 18.4929 17.1678 18.3647 16.8076 18.1996L19.9744 5.5268L22.8111 5.1084L21.6771 9.6052C21.9131 9.50497 22.158 9.42466 22.4087 9.3652C22.6662 9.30632 22.9302 9.27758 23.195 9.2796ZM20.8161 16.7412C21.2386 16.7415 21.6542 16.6397 22.024 16.4452C22.4041 16.247 22.7377 15.9769 23.0043 15.6516C23.2831 15.3125 23.5023 14.9327 23.6536 14.5268C23.8123 14.1073 23.893 13.6647 23.8922 13.2188C23.8922 12.6588 23.7939 12.226 23.599 11.9116C23.4041 11.5972 23.0413 11.4396 22.5171 11.4396C22.2925 11.4476 22.0694 11.4771 21.851 11.5276C21.5747 11.5879 21.3191 11.7143 21.1084 11.8948L19.9005 16.67C19.9736 16.6828 20.0383 16.694 20.0929 16.7052C20.1496 16.7172 20.2071 16.7258 20.2651 16.7308C20.3384 16.7384 20.4122 16.7419 20.486 16.7412H20.8161ZM29.5395 18.6396H26.8305L29.1178 9.4716H31.847L29.5395 18.6396ZM30.8575 8.354C30.4882 8.35749 30.128 8.24503 29.8327 8.034C29.5261 7.8204 29.374 7.4916 29.374 7.0484C29.3725 6.81136 29.4253 6.57686 29.5286 6.3612C29.6283 6.15156 29.7685 5.9616 29.9419 5.8012C30.115 5.64366 30.316 5.51662 30.5357 5.426C30.7645 5.33389 31.0106 5.28733 31.259 5.2892C31.6282 5.2857 31.9884 5.39817 32.2838 5.6092C32.5879 5.82253 32.7402 6.1508 32.7407 6.594C32.7421 6.83197 32.6888 7.06734 32.5845 7.2836C32.4861 7.49338 32.3467 7.68342 32.1737 7.8436C32.0007 8.00135 31.7992 8.12817 31.579 8.218C31.351 8.31171 31.1049 8.35885 30.8566 8.3564L30.8575 8.354ZM34.2175 7.1868L37.055 6.7708L36.3578 9.4732H39.3969L38.8501 11.5996H35.8303L35.0255 14.806C34.9556 15.0509 34.9128 15.3022 34.8979 15.5556C34.8797 15.7609 34.9107 15.9674 34.9886 16.1596C35.0642 16.3319 35.2043 16.4713 35.3817 16.5508C35.5707 16.6444 35.8412 16.6916 36.1957 16.6916C36.4819 16.692 36.7676 16.6652 37.0483 16.6116C37.3306 16.5583 37.6086 16.4856 37.8799 16.394L38.0823 18.382C37.6934 18.5156 37.2962 18.626 36.8929 18.7124C36.3938 18.8114 35.8847 18.8573 35.375 18.8492C34.535 18.8492 33.882 18.7308 33.4161 18.494C32.9802 18.2843 32.6311 17.9411 32.4249 17.5196C32.2254 17.0716 32.1391 16.5852 32.1729 16.0996C32.2013 15.5296 32.2856 14.9634 32.4249 14.4084L34.22 7.1924L34.2175 7.1868ZM39.2776 14.9788C39.2724 14.218 39.4086 13.4624 39.68 12.7468C39.9359 12.0712 40.3283 11.4499 40.835 10.918C41.3454 10.3888 41.9662 9.96698 42.6578 9.6796C43.411 9.36972 44.2246 9.21513 45.0451 9.226C45.5406 9.2203 46.0351 9.27025 46.5184 9.3748C46.9257 9.46556 47.3219 9.59695 47.7003 9.7668L46.7662 11.7916C46.5165 11.6967 46.2631 11.6124 46.006 11.5388C45.6936 11.4559 45.3701 11.4174 45.0459 11.4244C44.1412 11.4244 43.4264 11.722 42.8947 12.3132C42.3629 12.9044 42.095 13.7028 42.095 14.702C42.095 15.2945 42.2297 15.7745 42.499 16.142C42.767 16.5084 43.2626 16.6908 43.9808 16.6908C44.3256 16.6916 44.6695 16.6567 45.0064 16.5868C45.3071 16.5254 45.6012 16.4379 45.8851 16.3252L46.09 18.3996C45.7195 18.5347 45.3408 18.6485 44.956 18.7404C44.4694 18.8452 43.9714 18.8946 43.4726 18.8876C42.716 18.8876 42.0754 18.7831 41.5507 18.574C41.0583 18.3855 40.6151 18.097 40.252 17.7284C39.9079 17.3715 39.6542 16.9443 39.5103 16.4796C39.3561 15.9937 39.2786 15.4888 39.2801 14.9812L39.2776 14.9788ZM51.3115 18.8828C50.7377 18.8939 50.1671 18.7988 49.6315 18.6028C49.1792 18.4328 48.775 18.1643 48.4513 17.8188C48.1337 17.4706 47.8939 17.0645 47.7465 16.6252C47.5832 16.1338 47.5035 15.6206 47.5105 15.1052C47.5121 14.3941 47.632 13.6878 47.8658 13.0124C48.0949 12.3296 48.4517 11.6919 48.9191 11.13C49.3841 10.57 49.9618 10.1041 50.6185 9.7596C51.2905 9.406 52.0582 9.2284 52.9234 9.2284C53.4971 9.21767 54.0675 9.31247 54.6034 9.5076C55.0566 9.67776 55.4618 9.9462 55.787 10.2916C56.1039 10.6403 56.3431 11.0466 56.4901 11.486C56.6546 11.9788 56.7349 12.4937 56.7278 13.0108C56.7252 13.7211 56.6085 14.4269 56.3817 15.1036C56.1589 15.7834 55.8117 16.4204 55.3561 16.9852C54.8982 17.5486 54.3216 18.0146 53.6635 18.3532C52.9875 18.7079 52.2035 18.8852 51.3115 18.8852V18.8828ZM52.6655 11.4228C52.2832 11.4168 51.9097 11.5329 51.6046 11.7524C51.2937 11.9812 51.0329 12.2657 50.8369 12.59C50.6257 12.9357 50.4682 13.3086 50.369 13.6972C50.2691 14.0701 50.2172 14.4532 50.2144 14.838C50.2144 15.4204 50.3119 15.8737 50.5067 16.198C50.7025 16.522 51.0553 16.6852 51.5685 16.6852C51.9515 16.6913 52.3256 16.5744 52.6303 16.3532C52.9419 16.1261 53.2036 15.8429 53.4005 15.5196C53.612 15.174 53.7699 14.8011 53.8693 14.4124C53.9676 14.0395 54.0192 13.6568 54.023 13.2724C54.023 12.6924 53.9247 12.238 53.729 11.9124C53.5333 11.5868 53.1796 11.4244 52.6672 11.4244L52.6655 11.4228ZM59.6829 18.6396H56.9714L59.2595 9.4716H61.9879L59.6829 18.6396ZM60.9992 8.354C60.6301 8.35786 60.2701 8.24534 59.9752 8.034C59.6695 7.82067 59.5163 7.49213 59.5157 7.0484C59.5148 6.81124 59.5681 6.57674 59.672 6.3612C59.7708 6.15127 59.9108 5.96121 60.0844 5.8012C60.2577 5.64346 60.4591 5.5164 60.6791 5.426C60.9071 5.33295 61.1527 5.28557 61.4007 5.2868C61.7702 5.28313 62.1307 5.3956 62.4263 5.6068C62.7313 5.8228 62.885 6.1508 62.885 6.5916C62.8853 6.82955 62.8317 7.06476 62.7279 7.2812C62.6298 7.49094 62.4907 7.68099 62.318 7.8412C62.1447 7.99865 61.9433 8.12544 61.7233 8.2156C61.4947 8.30939 61.248 8.35654 60.9992 8.354ZM63.9392 9.8884C64.145 9.8308 64.3751 9.762 64.6246 9.6868C64.9018 9.6052 65.1818 9.53613 65.4646 9.4796C65.8089 9.40865 66.1568 9.35524 66.5071 9.3196C66.9412 9.27557 67.3775 9.25474 67.8141 9.2572C69.2427 9.2572 70.2285 9.65267 70.7717 10.4436C71.3149 11.2345 71.4099 12.3153 71.0565 13.686L69.815 18.6396H67.0875L68.2954 13.7932C68.3693 13.4908 68.4265 13.198 68.4701 12.9132C68.5141 12.6648 68.5107 12.4109 68.4601 12.1636C68.4163 11.9569 68.2973 11.7716 68.1241 11.6404C67.946 11.5068 67.6755 11.4404 67.3093 11.4404C66.9467 11.4415 66.5851 11.4769 66.2299 11.546L64.4524 18.6396H61.7249L63.94 9.89L63.9392 9.8884Z" fill="#404F55"/>
</svg>
