<svg width="84" height="24" viewBox="0 0 84 24" fill="none" xmlns="http://www.w3.org/2000/svg">
<path d="M6.84599 17.6524C6.58811 17.5348 6.30083 17.534 6.02951 17.466C4.68159 17.1267 3.50022 16.3501 2.68904 15.2701C1.87786 14.1902 1.48771 12.8745 1.58584 11.55C1.68398 10.2255 2.26424 8.97502 3.22661 8.01425C4.18898 7.05347 5.47315 6.44257 6.85775 6.28683C10.1699 5.89323 13.2241 8.20683 13.5525 11.3548C13.8751 14.4396 11.6844 17.11 8.42855 17.6004C8.38235 17.6076 8.32103 17.586 8.30003 17.6524H6.84599ZM9.74399 12.1116C10.2354 11.8516 10.379 11.7044 10.479 11.3596C10.6831 10.6556 10.4025 10.1548 9.62387 9.80763C9.44831 9.72763 9.17111 9.73403 9.11399 9.57243C9.05687 9.41083 9.17783 9.21083 9.22067 9.02683C9.34247 8.50523 9.34163 8.50923 8.79227 8.40683C8.65199 8.38043 8.58563 8.40683 8.56295 8.54763C8.53271 8.73403 8.48735 8.91723 8.44535 9.10203C8.36135 9.46123 8.36135 9.45803 7.97831 9.37163C7.86575 9.34603 7.81955 9.31083 7.85315 9.18923C7.92119 8.94363 7.97411 8.69403 8.02115 8.44523C8.03795 8.36523 8.09843 8.25323 7.93715 8.24283C7.73219 8.23003 7.53983 8.06923 7.32647 8.19403C7.30127 8.20843 7.30883 8.27403 7.29959 8.31163C7.24499 8.55163 7.18283 8.79163 7.13747 9.03163C7.10975 9.17803 7.04171 9.21483 6.89135 9.17963C6.54779 9.09963 6.19751 9.04283 5.85479 8.95883C5.70359 8.92203 5.66831 8.96443 5.63555 9.09803C5.50787 9.62123 5.50199 9.62043 6.02951 9.76283C6.05507 9.76682 6.08033 9.77243 6.10511 9.77963C6.29411 9.85963 6.39575 9.97963 6.34871 10.1844C6.13255 11.1375 5.91751 12.0906 5.70359 13.0436C5.66159 13.2292 5.56163 13.3044 5.35667 13.2836C5.18867 13.2644 4.99295 13.1284 4.86611 13.2396C4.73927 13.3508 4.71575 13.5436 4.64603 13.702C4.63512 13.7333 4.62193 13.7637 4.60655 13.7932C4.51331 13.9428 4.58807 13.9852 4.73927 14.0108C5.01983 14.0588 5.29787 14.1196 5.57927 14.1788C5.95223 14.2588 5.95139 14.2588 5.86823 14.6268C5.84891 14.7148 5.83127 14.8036 5.81195 14.8916C5.70107 15.3916 5.70191 15.3876 6.24203 15.482C6.38063 15.5068 6.44615 15.482 6.47219 15.342C6.52203 15.0844 6.57803 14.8279 6.64019 14.5724C6.70571 14.3132 6.88631 14.4972 7.01483 14.4972C7.14335 14.4972 7.23491 14.5148 7.18283 14.6852C7.10807 14.9252 7.07363 15.182 7.00643 15.4276C6.96359 15.5876 7.02407 15.642 7.18031 15.6748C7.68431 15.778 7.68431 15.782 7.79603 15.3028C7.84307 15.1028 7.82711 14.8372 7.95815 14.722C8.10263 14.5948 8.37815 14.722 8.59403 14.7364C9.64067 14.8004 10.2631 14.3476 10.4496 13.3828C10.5395 12.9156 10.3782 12.546 9.97919 12.2628C9.90527 12.2108 9.82799 12.1604 9.74399 12.1116Z" fill="#404F55"/>
<path d="M18.9949 6.78424C18.7177 7.88184 18.443 8.96824 18.16 10.0866C18.5128 9.98664 18.8269 9.87784 19.168 9.87064C20.6136 9.83944 21.5561 10.5858 21.7854 12.009C22.1357 14.1818 20.7866 16.2986 18.5598 16.881C17.241 17.2258 15.9415 17.0466 14.6681 16.6178C14.4766 16.553 14.5102 16.4418 14.5438 16.3098C15.0164 14.4314 15.489 12.553 15.9617 10.6746C16.2464 9.54424 16.5337 8.41464 16.8101 7.28184C16.847 7.13144 16.9058 7.06584 17.0713 7.04184C17.6786 6.96184 18.2826 6.86424 18.8891 6.77544C18.9246 6.77498 18.96 6.77793 18.9949 6.78424ZM19.7887 12.8234C19.7992 12.56 19.7599 12.2969 19.6728 12.0466C19.6323 11.9069 19.5491 11.7819 19.4338 11.6873C19.3185 11.5927 19.1762 11.5329 19.0252 11.5154C18.6378 11.4571 18.2411 11.5244 17.8987 11.7066C17.8422 11.7356 17.7934 11.7763 17.7557 11.8258C17.718 11.8752 17.6925 11.9321 17.6812 11.9922C17.4163 13.0589 17.1447 14.124 16.8664 15.1874C16.8244 15.3474 16.8613 15.4058 17.0243 15.4218C17.6005 15.4794 18.149 15.4154 18.6245 15.0738C19.4107 14.5098 19.7568 13.7378 19.7887 12.8234Z" fill="#404F55"/>
<path d="M75.2917 16.863C75.5437 15.8662 75.7856 14.8878 76.0326 13.9094C76.5811 11.735 77.1347 9.56225 77.6731 7.38545C77.7311 7.15185 77.8268 7.04785 78.0822 7.01905C78.6702 6.95265 79.2582 6.85905 79.8974 6.76465C79.6194 7.85665 79.3481 8.92465 79.07 10.0126C79.5396 9.95345 79.9764 9.87905 80.4283 9.90545C81.7656 9.98545 82.3872 10.8654 82.43 11.9662C82.4603 12.7606 82.2016 13.5038 82.021 14.2606C81.8303 15.0606 81.6144 15.8526 81.4212 16.6502C81.3817 16.8102 81.3187 16.8742 81.1322 16.8686C80.6047 16.8542 80.0764 16.8518 79.5488 16.8686C79.3246 16.8758 79.3136 16.803 79.3582 16.6286C79.658 15.4502 79.9562 14.271 80.2444 13.0902C80.3216 12.7702 80.4124 12.4502 80.3435 12.119C80.2595 11.699 80.031 11.5118 79.5799 11.4934C79.3551 11.4914 79.1304 11.5059 78.9079 11.5366C78.7349 11.555 78.6559 11.6262 78.6198 11.7854C78.3098 13.0454 77.9923 14.3038 77.6765 15.563C77.5799 15.9454 77.4816 16.327 77.385 16.7094C77.3648 16.7894 77.3581 16.8638 77.2321 16.8622C76.592 16.8606 75.9528 16.863 75.2917 16.863Z" fill="#404F55"/>
<path d="M66.0551 9.85671C67.1126 9.87671 67.9476 9.97431 68.7481 10.2703C68.9161 10.3303 68.9632 10.3935 68.9161 10.5759C68.6356 11.6391 68.3869 12.7103 68.103 13.7759C67.8621 14.6785 67.8973 15.6278 68.2046 16.5119C68.2643 16.6911 68.2441 16.7519 68.0366 16.7719C67.6074 16.8151 67.179 16.8735 66.7548 16.9471C66.528 16.9863 66.3659 16.9671 66.3096 16.7255C66.3076 16.7174 66.3045 16.7096 66.3004 16.7023C66.1508 16.3895 66.1483 16.3863 65.856 16.5743C65.5403 16.7856 65.182 16.9321 64.8037 17.0044C64.4254 17.0767 64.0354 17.0733 63.6586 16.9943C62.6338 16.7911 62.0558 16.1567 61.8248 15.2079C61.399 13.4583 62.1214 11.6015 63.6283 10.6023C64.4162 10.0799 65.2957 9.82791 66.0551 9.85671ZM63.751 14.0519C63.7456 14.2817 63.7739 14.5111 63.835 14.7335C63.9828 15.2263 64.2911 15.4295 64.8295 15.4055C65.1941 15.3887 65.4881 15.2359 65.7535 15.0111C65.8356 14.94 65.8856 14.8414 65.893 14.7359C65.9425 14.3791 65.9921 14.0207 66.0752 13.6703C66.2306 13.0079 66.4112 12.3503 66.5792 11.6911C66.6019 11.6031 66.6565 11.5175 66.4952 11.4983C65.893 11.4287 65.3251 11.4775 64.8304 11.8599C64.097 12.4271 63.7837 13.1767 63.751 14.0519Z" fill="#404F55"/>
<path d="M43.9219 12.6754C43.8724 14.2074 43.3642 15.5378 41.9824 16.4506C41.0533 17.0642 40.0134 17.1898 38.9357 16.9306C37.8983 16.6842 37.3313 15.9938 37.1078 15.025C36.7231 13.3626 37.5228 11.4026 38.9794 10.4426C39.9109 9.82817 40.9391 9.68497 42.0227 9.93857C43.1189 10.1946 43.8329 11.0794 43.9211 12.2298C43.932 12.3794 43.9219 12.5282 43.9219 12.6754ZM41.9059 12.8354C41.9077 12.6541 41.89 12.4732 41.853 12.2954C41.7278 11.6506 41.291 11.3682 40.6182 11.5034C40.3808 11.556 40.1617 11.6662 39.9823 11.8234C39.2146 12.4634 38.8298 13.9682 39.202 14.8738C39.2541 15.0187 39.3509 15.1453 39.4798 15.2369C39.6087 15.3285 39.7636 15.381 39.9244 15.3874C40.1271 15.4096 40.3325 15.3871 40.5246 15.3216C40.7167 15.2562 40.8904 15.1495 41.0323 15.0098C41.664 14.4106 41.8614 13.6522 41.9026 12.8386L41.9059 12.8354Z" fill="#404F55"/>
<path d="M47.6683 16.8639C47.9699 15.6711 48.2656 14.5007 48.5629 13.3311C48.799 12.3999 49.0409 11.4695 49.2702 10.5367C49.2806 10.4701 49.312 10.408 49.3601 10.3586C49.4082 10.3092 49.4709 10.2748 49.5399 10.2599C50.5354 9.94506 51.5847 9.81339 52.6319 9.87194C52.9791 9.885 53.3207 9.95876 53.6399 10.0895C54.4656 10.4383 54.7815 11.0927 54.8319 11.9007C54.8688 12.4999 54.7033 13.0719 54.5597 13.6455C54.3077 14.6495 54.0465 15.6511 53.7995 16.6559C53.7617 16.8095 53.7096 16.8719 53.5332 16.8679C52.9965 16.8559 52.4597 16.8519 51.9238 16.8679C51.6911 16.8751 51.7012 16.7959 51.7432 16.6279C52.0585 15.3698 52.3687 14.1101 52.6739 12.8487C52.7247 12.6576 52.7493 12.4611 52.747 12.2639C52.731 11.7703 52.4589 11.5071 51.9389 11.4943C51.7314 11.4895 51.5256 11.5143 51.319 11.5271C51.1123 11.5399 51.0384 11.6175 50.9956 11.7935C50.7041 12.9815 50.4076 14.1679 50.1077 15.3551C49.9977 15.7935 49.8859 16.2311 49.7826 16.6703C49.7499 16.8071 49.6986 16.8687 49.5306 16.8655C48.9141 16.8567 48.3 16.8639 47.6683 16.8639Z" fill="#404F55"/>
<path d="M71.342 17.0529C70.5062 17.0281 69.6931 16.9121 68.9354 16.5465C68.7842 16.4737 68.7338 16.4201 68.8178 16.2593C68.9984 15.9153 69.1639 15.5633 69.3151 15.2065C69.3991 15.0105 69.4714 14.9497 69.6973 15.0673C70.3499 15.4185 71.1079 15.5499 71.8486 15.4401C71.9687 15.4258 72.0859 15.3945 72.1963 15.3473C72.6634 15.1353 72.7138 14.6809 72.298 14.3913C72.025 14.2009 71.7058 14.0897 71.4025 13.9529C71.0035 13.7721 70.6205 13.5737 70.3231 13.2473C69.6511 12.5113 69.7486 10.8633 71.0934 10.2201C71.8452 9.86089 72.6491 9.80329 73.4681 9.83769C74.0557 9.86983 74.6325 10.0015 75.1716 10.2265C75.3304 10.2905 75.3799 10.3521 75.2934 10.5153C75.1069 10.8657 74.9356 11.2233 74.7734 11.5849C74.7046 11.7393 74.6399 11.7705 74.4694 11.6977C73.9108 11.4577 73.327 11.3313 72.7054 11.3937C72.5499 11.4037 72.3983 11.4443 72.2602 11.5129C71.8855 11.7129 71.8603 12.1649 72.2291 12.3713C72.6491 12.6113 73.0976 12.8097 73.5277 13.0361C74.0418 13.3073 74.4517 13.6577 74.5928 14.2361C74.8264 15.2289 74.3963 16.1313 73.4454 16.6153C72.7885 16.9529 72.072 17.0401 71.342 17.0529Z" fill="#404F55"/>
<path d="M31.416 10.019C31.2866 10.523 31.1598 11.0054 31.0388 11.4894C31.0078 11.615 30.9137 11.603 30.8188 11.603C30.2131 11.603 29.6066 11.6118 29.0018 11.5974C28.7935 11.5926 28.723 11.6598 28.6801 11.8446C28.4844 12.6846 28.2559 13.5174 28.0703 14.3582C27.9208 15.0366 28.2232 15.3702 28.9531 15.3926C29.3429 15.4012 29.7312 15.3435 30.0997 15.2222C30.235 15.179 30.2862 15.1966 30.298 15.3358C30.3332 15.7358 30.3761 16.1358 30.4206 16.5358C30.4255 16.5554 30.4261 16.5758 30.4224 16.5957C30.4186 16.6155 30.4106 16.6345 30.3989 16.6513C30.3872 16.6681 30.3719 16.6824 30.3541 16.6934C30.3363 16.7043 30.3163 16.7117 30.2954 16.715C29.3177 17.031 28.3164 17.1502 27.3118 16.8934C26.3214 16.6406 25.951 15.9254 25.9904 14.9734C26.035 13.8838 26.4104 12.8518 26.6566 11.7982C26.9086 10.711 27.1967 9.63018 27.4638 8.54618C27.5016 8.38618 27.5478 8.29978 27.7519 8.27658C28.3256 8.21178 28.8968 8.11658 29.4672 8.02458C29.6276 7.99818 29.6646 8.02458 29.6218 8.17978C29.4764 8.71098 29.353 9.24698 29.2018 9.77978C29.148 9.96938 29.164 10.035 29.3958 10.0302C30.0594 10.0094 30.7255 10.019 31.416 10.019Z" fill="#404F55"/>
<path d="M55.755 14.0754C55.8146 12.4322 56.4446 11.0802 58.0373 10.2874C59.2779 9.6698 60.5774 9.6866 61.8786 10.153C62.0416 10.2114 62.0642 10.2754 61.992 10.421C61.8005 10.8061 61.619 11.1954 61.4477 11.589C61.388 11.7274 61.3275 11.7546 61.1822 11.6954C60.6716 11.4815 60.1034 11.4255 59.5577 11.5354C58.658 11.7162 58.1742 12.2946 57.9701 13.1058C57.8317 13.5914 57.8337 14.1036 57.9759 14.5882C58.1439 15.1106 58.4799 15.3514 59.057 15.3882C59.5502 15.4198 60.0448 15.352 60.5086 15.189C60.6539 15.1386 60.7244 15.137 60.7362 15.3122C60.7647 15.7122 60.8093 16.1122 60.8471 16.5122C60.8563 16.6026 60.8706 16.6826 60.7421 16.7274C59.6433 17.1058 58.527 17.2186 57.4249 16.797C56.2489 16.3466 55.7961 15.4226 55.755 14.2746C55.7533 14.2066 55.755 14.141 55.755 14.0754Z" fill="#404F55"/>
<path d="M36.0847 15.1262C36.1351 15.6158 36.1822 16.0862 36.2326 16.5582C36.2367 16.5759 36.2371 16.5942 36.2336 16.612C36.2302 16.6298 36.223 16.6468 36.2124 16.6619C36.2019 16.677 36.1883 16.6899 36.1724 16.6999C36.1566 16.7098 36.1387 16.7166 36.12 16.7198C35.0414 17.0966 33.9469 17.1998 32.8532 16.8118C31.82 16.4446 31.2841 15.6798 31.164 14.6662C31.0128 13.3862 31.2984 12.1974 32.1955 11.1974C33.1472 10.1374 34.4005 9.75744 35.8378 9.83744C36.3287 9.87072 36.8108 9.97876 37.2658 10.1574C37.4136 10.2142 37.4338 10.2702 37.3699 10.4062C37.1834 10.7838 37.0037 11.1654 36.839 11.5526C36.7702 11.7126 36.7021 11.763 36.5215 11.6862C36.1473 11.5328 35.7406 11.4646 35.3338 11.487C34.5299 11.5174 33.9234 11.8518 33.5597 12.5342C33.237 13.1404 33.1532 13.8367 33.3236 14.4966C33.4631 15.0846 33.8276 15.3494 34.4602 15.3878C35.0188 15.4206 35.5446 15.3118 36.0847 15.1262Z" fill="#404F55"/>
<path d="M44.1311 16.8636C44.4721 15.4988 44.8031 14.1612 45.1391 12.8236C45.3566 11.9556 45.5801 11.0884 45.7876 10.218C45.8262 10.058 45.8942 10.0116 46.0622 10.0148C46.6066 10.0244 47.1542 10.026 47.6969 10.0148C47.8808 10.0148 47.8926 10.0732 47.8565 10.2148C47.3066 12.3796 46.7586 14.5449 46.2126 16.7108C46.1866 16.8148 46.1572 16.8708 46.0328 16.866C45.4129 16.8604 44.7905 16.8636 44.1311 16.8636Z" fill="#404F55"/>
<path d="M25.7964 10.0194C25.4957 11.2138 25.2017 12.3842 24.9068 13.5546C24.6481 14.5818 24.386 15.6082 24.1324 16.637C24.092 16.8042 24.0282 16.877 23.8283 16.8698C23.31 16.853 22.79 16.8538 22.2709 16.8698C22.0609 16.8754 22.029 16.8218 22.076 16.6378C22.5145 14.9103 22.9491 13.1818 23.3797 11.4522C23.4872 11.0226 23.5981 10.593 23.7065 10.1626C23.7241 10.093 23.7208 10.0178 23.8375 10.0186C24.4843 10.021 25.1311 10.0194 25.7964 10.0194Z" fill="#404F55"/>
<path d="M25.0547 9.18953C24.2021 9.18953 23.7249 8.55673 24.0063 7.79193C24.1131 7.51225 24.3132 7.27363 24.576 7.11265C24.8388 6.95168 25.1497 6.87723 25.4612 6.90073C26.3012 6.98073 26.6927 7.61513 26.3709 8.35353C26.2632 8.60142 26.0806 8.81324 25.8462 8.96209C25.6119 9.11094 25.3364 9.1901 25.0547 9.18953Z" fill="#404F55"/>
<path d="M46.0438 8.21633C46.0469 8.01504 46.0974 7.81698 46.1918 7.63683C46.2861 7.45668 46.4218 7.29904 46.5888 7.17558C46.7557 7.05213 46.9497 6.96603 47.1564 6.92364C47.363 6.88126 47.577 6.88368 47.7826 6.93073C48.295 7.05153 48.5772 7.39153 48.5738 7.88513C48.5671 8.76033 47.6204 9.40513 46.7426 9.13153C46.2664 8.98353 46.0438 8.69153 46.0438 8.21633Z" fill="#404F55"/>
<path d="M8.03712 13.7655C7.70053 13.7564 7.36607 13.7113 7.04004 13.6311C6.92664 13.6079 6.87204 13.5759 6.90312 13.4543C6.9972 13.0631 7.0812 12.6703 7.17192 12.2783C7.18788 12.2063 7.203 12.1423 7.32228 12.1647C7.75488 12.2447 8.18832 12.3183 8.5764 12.5327C8.9124 12.7191 9.0594 12.9703 8.9964 13.2527C8.92248 13.5727 8.6814 13.7431 8.27232 13.7687C8.19252 13.7695 8.11524 13.7655 8.03712 13.7655Z" fill="#404F55"/>
<path d="M8.27567 11.5939C7.98923 11.5939 7.63895 11.6091 7.45499 11.4523C7.25843 11.2851 7.51211 10.9827 7.52303 10.7323C7.5288 10.6917 7.53865 10.6518 7.55243 10.6131C7.67003 10.1139 7.67003 10.1155 8.20931 10.2483C8.41975 10.2935 8.62172 10.369 8.80823 10.4723C9.09131 10.6395 9.20051 10.8723 9.12827 11.1571C9.06611 11.3971 8.84603 11.5611 8.53439 11.5907C8.44827 11.5962 8.3619 11.5972 8.27567 11.5939Z" fill="#404F55"/>
</svg>
