<svg width="203" height="58" viewBox="0 0 203 58" fill="none" xmlns="http://www.w3.org/2000/svg">
<path d="M183.579 29.0677C183.078 30.4578 182.824 31.9078 182.446 33.3211C182.054 34.7943 181.675 36.2713 181.332 37.7561C181.236 38.1718 181.056 38.3033 180.621 38.2936C179.515 38.2704 178.404 38.2723 177.296 38.2936C176.847 38.2936 176.732 38.1989 176.845 37.7542C177.523 35.1036 178.173 32.4453 178.819 29.7889C178.974 29.248 179.047 28.6887 179.036 28.1281C178.979 27.1112 178.409 26.5621 177.351 26.5061C175.463 26.4055 175.366 26.4809 174.931 28.219C174.137 31.3955 173.325 34.5661 172.546 37.7465C172.448 38.1467 172.296 38.3071 171.85 38.2975C170.741 38.2704 169.633 38.2762 168.524 38.2975C168.094 38.2975 167.934 38.2221 168.052 37.7658C169.196 33.3191 170.319 28.8551 171.454 24.4007C171.507 24.1938 171.531 23.9753 171.821 23.8845C174.385 23.0802 176.998 22.6703 179.685 23.0899C181.715 23.4089 183.041 24.5225 183.451 26.5022C183.463 26.5563 183.534 26.5969 183.579 26.6433V29.0677Z" fill="#404F55"/>
<path d="M107.474 36.7217C106.4 37.2056 105.202 37.3867 104.023 37.2437C101.348 36.9247 99.7156 35.1712 99.5573 32.4877C99.269 27.3683 102.545 23.6621 107.921 22.9931C110.2 22.7096 112.516 22.9899 114.648 23.8071C115.022 23.9463 115.223 24.0932 115.109 24.5398C114.027 28.7564 112.969 32.9788 111.898 37.1973C111.784 37.6084 111.649 38.0137 111.492 38.4115C110.343 41.4797 108.063 43.2274 104.651 43.5541C102.401 43.7687 100.185 43.6411 98.047 42.7808C97.5029 42.5623 97.3994 42.369 97.6734 41.8625C98.0318 41.1821 98.3431 40.48 98.6052 39.7609C98.792 39.2699 98.9767 39.1268 99.5532 39.3743C101.151 40.0768 102.939 40.2837 104.667 39.9659C105.454 39.8135 106.163 39.408 106.674 38.8174C107.185 38.2269 107.468 37.487 107.474 36.7217ZM103.975 31.5288C104.017 32.2403 104.017 33.1702 104.99 33.6361C106.053 34.1407 107.101 33.8836 108.1 33.3867C108.225 33.3237 108.334 33.235 108.419 33.127C108.504 33.0191 108.562 32.8945 108.591 32.7623C109.068 30.8676 109.541 28.9729 110.032 27.0841C110.15 26.6317 109.987 26.5157 109.525 26.477C106.321 26.2025 103.997 28.2267 103.975 31.5288Z" fill="#404F55"/>
<path d="M66.3018 32.5186C66.2917 27.9018 69.4625 24.1125 74.0889 23.2212C75.1264 22.9857 76.2047 22.9639 77.2517 23.1574C77.8404 23.285 78.0109 23.0724 78.1286 22.5774C78.5346 20.851 79.0035 19.14 79.4035 17.4154C79.5009 16.9959 79.6755 16.8064 80.114 16.7484C81.332 16.5899 82.5432 16.4127 83.7477 16.2168C84.3018 16.1278 84.1334 16.4372 84.0704 16.6866C83.5102 18.9202 82.9445 21.1558 82.3733 23.3933C81.6568 26.2218 80.932 29.0483 80.2297 31.8806C79.7929 33.7051 79.8848 35.6082 80.4956 37.3868C80.6641 37.903 80.5646 38.048 80.0064 38.0924C79.161 38.1643 78.3206 38.2818 77.4892 38.4443C76.9106 38.5564 76.5168 38.4443 76.3767 37.8759C76.2082 37.1741 75.9037 37.2959 75.3901 37.6265C73.1165 39.0726 70.1893 39.0378 68.3176 37.5569C66.8418 36.3969 66.4541 34.7613 66.3039 33.0503C66.2876 32.8782 66.3018 32.6965 66.3018 32.5186ZM75.8936 26.5446C71.4844 26.4383 69.834 31.7646 71.2002 34.247C71.6367 35.0397 72.4365 35.1654 73.2688 35.0996C73.7044 35.0726 74.1281 34.9527 74.5086 34.7489C74.8891 34.5452 75.2167 34.2627 75.4673 33.9222C75.5038 33.8758 75.4876 33.7927 75.4957 33.7289C75.7332 31.5868 76.3605 29.522 76.8822 27.4359C77.0852 26.622 77.0649 26.5968 76.1778 26.5504C76.0824 26.5408 75.989 26.5466 75.8936 26.5446Z" fill="#404F55"/>
<path d="M150.691 38.6666C146.684 38.6666 144.41 36.6463 144.256 32.9266C144.124 29.7327 145.214 26.9216 147.808 24.766C149.873 23.0492 152.295 22.5368 154.944 23.0724C157.38 23.5634 158.9 25.1797 159.231 27.8284C159.678 31.4012 158.622 34.5332 155.677 36.9421C154.304 38.0982 152.522 38.7146 150.691 38.6666ZM148.687 31.8845C148.71 32.5708 148.71 33.0832 148.856 33.5878C149.189 34.7246 150.003 35.2446 151.233 35.0822C152.347 34.9334 153.123 34.3089 153.701 33.4505C154.707 31.9707 155.107 30.1913 154.828 28.449C154.625 26.9139 153.665 26.243 152.075 26.5369C151.518 26.65 151.009 26.9194 150.614 27.3102C149.205 28.6133 148.756 30.2566 148.687 31.8787V31.8845Z" fill="#404F55"/>
<path d="M89.2632 38.6666C85.6092 38.6666 83.3883 36.9073 83.0838 33.3596C82.753 29.4929 84.1557 26.2063 87.7062 24.0023C89.726 22.7456 91.959 22.5677 94.2326 23.1999C96.0982 23.7239 97.2329 24.9844 97.7912 26.7321C98.9361 30.3262 97.2472 35.0571 94.0377 37.2417C92.5802 38.2413 91.1815 38.655 89.2632 38.6666ZM93.6804 29.5123C93.6622 29.2087 93.6561 28.8955 93.6256 28.5843C93.4389 26.707 91.7986 25.8911 90.063 26.8191C89.6723 27.0283 89.3277 27.3073 89.048 27.6408C87.6087 29.3634 87.2007 31.3335 87.6128 33.4408C87.8726 34.7825 88.8024 35.2833 90.2152 35.03C90.8209 34.9235 91.3766 34.6397 91.8047 34.218C93.1608 32.9169 93.6175 31.2871 93.6804 29.5045V29.5123Z" fill="#404F55"/>
<path d="M122.441 38.6532C121.207 38.6822 120.083 38.5932 119.017 38.1718C116.831 37.3056 115.801 35.6584 115.517 33.5008C114.955 29.2262 117.651 24.2344 122.86 23.0879C124.053 22.7915 125.305 22.7849 126.501 23.0686C128.142 23.4958 129.343 24.4219 129.715 26.0498C130.135 27.9367 129.652 29.6148 128.079 30.9121C126.747 32.0083 125.117 32.4452 123.42 32.6985C122.42 32.8576 121.407 32.9397 120.393 32.944C119.945 32.944 119.884 33.1064 119.987 33.468C120.249 34.452 121.075 35.0378 122.377 35.1171C123.698 35.2087 125.026 35.0591 126.288 34.6763C126.757 34.5294 126.869 34.6589 126.897 35.063C126.95 35.846 126.997 36.629 127.1 37.4042C127.159 37.7909 126.995 37.9146 126.658 38.0132C125.298 38.4411 123.874 38.6572 122.441 38.6532ZM121.087 29.9938C121.4 29.959 121.971 29.9261 122.523 29.8236C123.424 29.6554 124.333 29.4756 125.093 28.9343C125.386 28.7243 125.603 28.4317 125.712 28.0979C125.822 27.7642 125.818 27.4061 125.702 27.0744C125.436 26.3881 124.833 26.2489 124.159 26.245C122.411 26.245 120.884 27.3857 120.217 29.2108C119.918 30.0363 119.918 30.0363 121.087 29.9938Z" fill="#404F55"/>
<path d="M137.616 38.6841C136.647 38.7035 135.681 38.5669 134.76 38.2801C132.455 37.4874 131.106 35.9175 130.831 33.6246C130.383 29.9513 131.4 26.7361 134.662 24.4993C137.543 22.5234 140.742 22.4422 144.031 23.5519C144.477 23.7008 144.465 23.8999 144.294 24.2441C143.907 25.0348 143.533 25.8333 143.186 26.6395C143.04 26.9797 142.875 27.0687 142.506 26.9121C141.46 26.4776 140.301 26.3517 139.179 26.5505C137.126 26.8734 135.699 28.4201 135.425 30.568C135.324 31.2079 135.307 31.8574 135.375 32.5013C135.618 34.2935 136.513 35.0881 138.42 35.0823C139.32 35.0924 140.215 34.9443 141.059 34.6454C141.442 34.5062 141.574 34.6164 141.605 34.9644C141.676 35.8112 141.735 36.6619 141.834 37.5067C141.877 37.8779 141.651 37.9765 141.367 38.0519C140.709 38.2259 140.058 38.4386 139.388 38.5469C138.8 38.6242 138.209 38.6701 137.616 38.6841Z" fill="#404F55"/>
<path d="M162.004 38.2936C161.44 38.2936 160.873 38.2762 160.307 38.2936C159.867 38.311 159.743 38.2182 159.86 37.762C160.626 34.7885 161.355 31.8054 162.093 28.8261C162.499 27.1731 162.93 25.524 163.324 23.8671C163.425 23.4379 163.577 23.2349 164.103 23.26C165.163 23.3122 166.226 23.3122 167.286 23.26C167.911 23.2291 167.918 23.463 167.802 23.9174C166.753 28.0418 165.71 32.1708 164.674 36.3042C164.554 36.7818 164.391 37.2554 164.322 37.7388C164.253 38.2221 164.004 38.3188 163.557 38.2936C163.044 38.2801 162.524 38.2936 162.004 38.2936Z" fill="#404F55"/>
<path d="M166.308 21.4329C164.822 21.4213 163.872 20.5687 163.902 19.2657C163.935 17.7441 165.362 16.4333 166.992 16.4314C168.443 16.4314 169.428 17.3014 169.428 18.5871C169.42 18.9694 169.334 19.3466 169.173 19.6969C169.012 20.0472 168.779 20.3637 168.489 20.6282C168.2 20.8927 167.857 21.1 167.483 21.2381C167.109 21.3762 166.709 21.4424 166.308 21.4329Z" fill="#404F55"/>
<path d="M37.5773 11.7102C33.9868 11.7102 30.4768 12.7242 27.4914 14.6241C24.5059 16.5239 22.179 19.2242 20.805 22.3835C19.4309 25.5428 19.0714 29.0192 19.7719 32.3731C20.4724 35.727 22.2014 38.8077 24.7403 41.2257C27.2792 43.6438 30.514 45.2905 34.0356 45.9576C37.5572 46.6247 41.2074 46.2823 44.5247 44.9737C47.8419 43.6651 50.6773 41.449 52.6721 38.6057C54.6669 35.7624 55.7316 32.4196 55.7316 29C55.7316 24.4145 53.8189 20.0167 50.4144 16.7743C47.0098 13.5318 42.3922 11.7102 37.5773 11.7102ZM38.1457 39.3433H30.8722V30.1368H28.3084V27.8787H30.8722V18.6741H37.1267C38.6065 18.6741 48.379 18.3531 48.379 29.1682C48.379 40.1611 38.1457 39.3433 38.1457 39.3433Z" fill="#404F55"/>
<path d="M37.8209 22.4634H34.9789V27.8767H39.5261V30.129H34.9789V35.5424H37.9914V35.5153C38.7649 35.5153 44.325 35.5868 44.3149 29.2281C44.3047 22.8694 38.8948 22.4634 37.8209 22.4634Z" fill="#404F55"/>
</svg>
