<svg width="84" height="24" viewBox="0 0 84 24" fill="none" xmlns="http://www.w3.org/2000/svg">
<path d="M28.7843 10.2276H27.8964V8.80837C27.8971 8.70788 27.8749 8.60843 27.8314 8.51688C27.7879 8.42532 27.7241 8.34382 27.6444 8.27797C27.5616 8.21092 27.4645 8.16187 27.3597 8.13424C27.255 8.1066 27.1452 8.10105 27.0379 8.11797C26.8673 8.14648 26.7128 8.23194 26.6023 8.35904C26.4918 8.48613 26.4324 8.64657 26.4348 8.81157V10.2244H25.6007C25.4073 10.2269 25.2226 10.3012 25.0859 10.4315C24.9493 10.5618 24.8714 10.7378 24.8691 10.922C24.868 11.0137 24.8863 11.1048 24.9227 11.1898C24.9591 11.2747 25.013 11.3519 25.0811 11.4168C25.1492 11.4817 25.2303 11.533 25.3195 11.5677C25.4087 11.6024 25.5043 11.6197 25.6007 11.6188H26.4348V16.266C26.435 16.4508 26.5122 16.628 26.6493 16.7587C26.7864 16.8895 26.9724 16.9632 27.1665 16.9636C27.3598 16.9611 27.5445 16.8868 27.6812 16.7565C27.8179 16.6261 27.8957 16.4501 27.8981 16.266V11.622H28.786C28.8824 11.623 28.9781 11.6058 29.0674 11.5711C29.1567 11.5365 29.2379 11.4852 29.3061 11.4203C29.3744 11.3554 29.4283 11.2782 29.4647 11.1932C29.5012 11.1081 29.5195 11.017 29.5185 10.9252C29.5183 10.8335 29.4993 10.7427 29.4623 10.658C29.4254 10.5733 29.3713 10.4963 29.3031 10.4316C29.2349 10.3668 29.154 10.3154 29.065 10.2804C28.976 10.2454 28.8806 10.2275 28.7843 10.2276Z" fill="#404F55"/>
<path d="M19.656 10.1104H19.6501C17.7685 10.1104 16.238 11.6696 16.238 13.5864C16.238 15.5032 17.7685 17.0624 19.6501 17.0624C20.9101 17.0624 22.0416 16.4888 22.5977 15.5656L22.6103 15.5424C22.6872 15.4055 22.7143 15.2483 22.6876 15.0952C22.6677 14.9816 22.6182 14.8747 22.5437 14.7841C22.4691 14.6935 22.3719 14.6222 22.2608 14.5768C22.1026 14.5116 21.9253 14.5015 21.7601 14.5483C21.5948 14.5951 21.4521 14.6958 21.357 14.8328C20.937 15.4064 20.4095 15.6616 19.6535 15.6616C18.7345 15.6616 18.0928 15.0144 17.8357 14.28H22.344C22.5402 14.2802 22.7285 14.2062 22.8675 14.0744C23.0066 13.9426 23.085 13.7636 23.0857 13.5768C23.0773 11.6632 21.541 10.1104 19.656 10.1104ZM17.8357 12.8864C18.0919 12.152 18.732 11.504 19.656 11.504C20.5582 11.504 21.2218 12.144 21.478 12.8864H17.8357Z" fill="#404F55"/>
<path d="M34.7609 10.1259C34.1663 10.1259 33.5872 10.3057 33.1069 10.6395V6.08352C33.1067 5.89878 33.0295 5.72167 32.8924 5.59104C32.7552 5.46041 32.5692 5.38693 32.3753 5.38672C32.1819 5.389 31.9971 5.46312 31.8603 5.59328C31.7234 5.72344 31.6454 5.89935 31.6428 6.08352V16.2395C31.642 16.3401 31.6642 16.4397 31.7077 16.5314C31.7512 16.6231 31.815 16.7048 31.8948 16.7707C31.9777 16.8376 32.0748 16.8866 32.1795 16.9142C32.2843 16.9418 32.394 16.9475 32.5013 16.9307C32.6721 16.9022 32.8266 16.8166 32.9372 16.6894C33.0477 16.5621 33.107 16.4015 33.1044 16.2363V13.9163C33.1044 13.9067 33.1044 13.8603 33.0968 13.8059C33.0968 13.7683 33.0884 13.7259 33.0876 13.7091V13.6803C33.0397 12.9771 33.2312 12.3507 33.6134 11.9635C33.899 11.6731 34.2854 11.5251 34.7625 11.5251C35.6991 11.5251 36.1259 12.3699 36.1259 13.1547V16.2395C36.1247 16.3314 36.1429 16.4225 36.1792 16.5076C36.2156 16.5926 36.2694 16.6699 36.3376 16.7349C36.4057 16.7999 36.4868 16.8512 36.5761 16.886C36.6654 16.9207 36.7611 16.9381 36.8575 16.9371C37.0516 16.9367 37.2375 16.863 37.3747 16.7323C37.5118 16.6015 37.5889 16.4243 37.5891 16.2395V13.1491C37.5908 11.6835 36.5996 10.1259 34.7609 10.1259Z" fill="#404F55"/>
<path d="M69.048 10.2928L69.0321 10.288C68.9236 10.2569 68.809 10.2505 68.6976 10.2694C68.5861 10.2883 68.4808 10.332 68.3903 10.3968C68.2983 10.4616 68.2234 10.546 68.1715 10.6432C68.1196 10.7404 68.0921 10.8477 68.0913 10.9568V12.936C68.0913 14.22 67.9048 15.6936 66.4541 15.6936C65.5175 15.6936 65.0908 14.8496 65.0908 14.0648V10.96C65.0906 10.7752 65.0134 10.5981 64.8762 10.4675C64.7391 10.3369 64.5531 10.2634 64.3591 10.2632C64.1659 10.2657 63.9813 10.3399 63.8447 10.47C63.708 10.6002 63.6301 10.7759 63.6275 10.96V14.068C63.6275 14.848 63.8795 15.58 64.3398 16.1304C64.5618 16.3943 64.8365 16.6137 65.1481 16.7759C65.4596 16.9381 65.8018 17.0399 66.1549 17.0755C66.508 17.1111 66.865 17.0796 67.2053 16.9831C67.5456 16.8865 67.8624 16.7266 68.1375 16.5128C68.188 16.6478 68.2815 16.7645 68.405 16.8465C68.5285 16.9286 68.6757 16.9719 68.8263 16.9704C69.0204 16.9702 69.2065 16.8966 69.3437 16.7658C69.4809 16.635 69.5579 16.4577 69.5579 16.2728V10.9696C69.5582 10.8201 69.5091 10.6743 69.4176 10.5529C69.3261 10.4314 69.1968 10.3404 69.048 10.2928Z" fill="#404F55"/>
<path d="M43.2936 10.1104H43.2877C41.4061 10.1104 39.8748 11.6696 39.8748 13.5864C39.8748 15.5032 41.4061 17.0624 43.2877 17.0624C44.5477 17.0624 45.6792 16.4888 46.2353 15.5656L46.2479 15.5424C46.3248 15.4055 46.3519 15.2483 46.3252 15.0952C46.3053 14.9816 46.2558 14.8747 46.1813 14.7841C46.1067 14.6935 46.0095 14.6222 45.8985 14.5768C45.7402 14.5116 45.5629 14.5015 45.3977 14.5483C45.2324 14.5951 45.0897 14.6958 44.9946 14.8328C44.5746 15.4064 44.0471 15.6616 43.2911 15.6616C42.3721 15.6616 41.7304 15.0144 41.4733 14.28H45.9808C46.1771 14.2802 46.3654 14.2063 46.5046 14.0745C46.6438 13.9427 46.7224 13.7637 46.7233 13.5768C46.7191 11.6632 45.1811 10.1104 43.2936 10.1104ZM41.4733 12.8864C41.7304 12.1512 42.3721 11.504 43.2911 11.504C44.1933 11.504 44.8569 12.144 45.1131 12.8864H41.4733Z" fill="#404F55"/>
<path d="M79.6152 10.126C79.1765 10.127 78.7441 10.2244 78.3514 10.4106C77.9588 10.5968 77.6166 10.8668 77.3514 11.1996C77.1023 10.8654 76.7721 10.5937 76.3889 10.4074C76.0056 10.2212 75.5808 10.126 75.1506 10.13C74.5355 10.1292 73.9368 10.3193 73.4454 10.6716C73.402 10.5671 73.3325 10.4743 73.2429 10.4012C73.1601 10.3341 73.063 10.2851 72.9582 10.2574C72.8535 10.2298 72.7437 10.2243 72.6365 10.2412C72.4658 10.2697 72.3114 10.3551 72.2008 10.4822C72.0903 10.6093 72.0309 10.7698 72.0333 10.9348V16.2396C72.0325 16.3402 72.0546 16.4398 72.0981 16.5315C72.1416 16.6232 72.2055 16.7048 72.2853 16.7708C72.4198 16.8791 72.5905 16.9381 72.7667 16.9372C72.8077 16.9371 72.8488 16.9339 72.8893 16.9276C73.0612 16.9002 73.2171 16.8152 73.3288 16.6878C73.4406 16.5604 73.5007 16.3991 73.4983 16.2332V13.9516C73.5073 13.8897 73.5073 13.827 73.4983 13.7652V13.7596C73.4681 12.93 73.652 12.2932 74.0309 11.9196C74.3022 11.6524 74.6693 11.5196 75.1523 11.5196C76.2283 11.5196 76.5156 12.5324 76.5156 13.13V16.2396C76.5145 16.3314 76.5326 16.4225 76.569 16.5076C76.6053 16.5927 76.6592 16.67 76.7273 16.735C76.7955 16.7999 76.8766 16.8513 76.9658 16.886C77.0551 16.9208 77.1508 16.9381 77.2472 16.9372C77.4413 16.937 77.6274 16.8634 77.7646 16.7326C77.9018 16.6018 77.9789 16.4245 77.9789 16.2396V13.8396C77.9789 13.0396 78.3216 11.5196 79.6169 11.5196C80.6921 11.5196 80.9793 12.5324 80.9793 13.13V16.2396C80.9782 16.3314 80.9964 16.4225 81.0327 16.5076C81.0691 16.5927 81.1229 16.67 81.1911 16.735C81.2592 16.7999 81.3403 16.8513 81.4296 16.886C81.5189 16.9208 81.6145 16.9381 81.711 16.9372C81.9052 16.937 82.0914 16.8634 82.2287 16.7326C82.366 16.6018 82.4432 16.4245 82.4435 16.2396V13.13C82.4451 11.674 81.4531 10.126 79.6152 10.126Z" fill="#404F55"/>
<path d="M57.9138 10.1104H57.9071C56.0255 10.1104 54.495 11.6696 54.495 13.5864C54.495 15.5032 56.0255 17.0624 57.9071 17.0624C59.1671 17.0624 60.2994 16.4888 60.8546 15.5656L60.8681 15.5424C60.945 15.4055 60.9721 15.2483 60.9454 15.0952C60.9255 14.9816 60.876 14.8747 60.8015 14.7841C60.7269 14.6935 60.6297 14.6222 60.5186 14.5768C60.3604 14.5116 60.1831 14.5015 60.0179 14.5483C59.8526 14.5951 59.7099 14.6958 59.6148 14.8328C59.1948 15.4064 58.6673 15.6616 57.9104 15.6616C56.9923 15.6616 56.3506 15.0144 56.0935 14.28H60.5976C60.7939 14.2802 60.9822 14.2063 61.1214 14.0745C61.2606 13.9427 61.3393 13.7637 61.3402 13.5768C61.336 11.6632 59.7988 10.1104 57.9138 10.1104ZM56.0935 12.8864C56.3506 12.1512 56.9923 11.504 57.9104 11.504C58.8134 11.504 59.477 12.144 59.7332 12.8864H56.0935Z" fill="#404F55"/>
<path d="M52.2169 10.2311C51.6037 10.2311 51.03 10.4759 50.5605 10.8255C50.5351 10.6604 50.4483 10.5094 50.316 10.3999C50.2332 10.333 50.136 10.284 50.0313 10.2564C49.9266 10.2287 49.8168 10.2231 49.7095 10.2399C49.5388 10.2684 49.3843 10.3539 49.2736 10.4809C49.1629 10.608 49.1034 10.7685 49.1056 10.9335V16.2207C49.1048 16.3128 49.1233 16.4042 49.1601 16.4893C49.1968 16.5745 49.251 16.6519 49.3196 16.7168C49.3881 16.7818 49.4695 16.8331 49.5592 16.8677C49.6488 16.9023 49.7447 16.9195 49.8414 16.9183C49.8833 16.9183 49.9252 16.9151 49.9666 16.9087C50.1374 16.8802 50.292 16.7946 50.4025 16.6674C50.513 16.5401 50.5723 16.3795 50.5697 16.2143V13.8943C50.5697 13.2839 50.7377 11.8399 52.3253 11.6207C52.5078 11.6017 52.6761 11.5178 52.7966 11.3859C52.9171 11.2539 52.981 11.0836 52.9755 10.9087C52.9754 10.8205 52.9567 10.7332 52.9203 10.6521C52.8839 10.571 52.8307 10.4977 52.7638 10.4367C52.6169 10.3025 52.4205 10.2287 52.2169 10.2311Z" fill="#404F55"/>
<path d="M7.30881 16.7215L1.55481 13.5439L7.30881 21.1311L13.062 13.5439L7.30881 16.7255V16.7215Z" fill="#404F55"/>
<path d="M13.062 12.5245L7.30881 3.5957L1.55481 12.5245L7.30881 15.7061L13.062 12.5245Z" fill="#404F55"/>
</svg>
