<svg width="84" height="24" viewBox="0 0 84 24" fill="none" xmlns="http://www.w3.org/2000/svg">
<path d="M9.53396 5C11.0242 4.99984 12.4811 5.42057 13.7203 6.20899C14.9595 6.9974 15.9254 8.11808 16.4958 9.42931C17.0662 10.7405 17.2156 12.1834 16.9249 13.5755C16.6343 14.9675 15.9167 16.2463 14.863 17.2499C13.8093 18.2536 12.4667 18.9371 11.0051 19.2141C9.54344 19.491 8.0284 19.3489 6.65155 18.8058C5.2747 18.2627 4.09787 17.343 3.2699 16.1629C2.44193 14.9828 2 13.5953 2 12.176C2 10.2729 2.79373 8.44782 4.2066 7.10208C5.61946 5.75635 7.53575 5.00021 9.53396 5ZM8.33948 7.7624L7.16768 11.98L6.36044 12.2776L5.97236 13.6616L6.7796 13.3712L6.1076 15.784H13.3148L13.8096 13.9936H9.47264L9.9674 12.2392L10.7587 11.956L11.1468 10.572L10.3546 10.8624L11.2148 7.76H8.33948V7.7624Z" fill="#404F55"/>
<path d="M20.3364 16.5576L22.3079 7.59277H24.2399L22.6027 15.056H27.3907L27.0631 16.5544L20.3364 16.5576Z" fill="#404F55"/>
<path d="M29.7335 10.0632H31.5731L30.1451 16.5576H28.3055L29.7335 10.0632ZM30.2728 7.59277H32.1157L31.7688 9.18237H29.9225L30.2728 7.59277Z" fill="#404F55"/>
<path d="M32.4215 11.3653L32.7037 10.0629H33.6025L33.8277 9.0229L35.9403 7.8125L35.4455 10.0629H36.5694L36.2855 11.3653H35.1557L34.5585 14.0853C34.4521 14.5792 34.3986 14.8605 34.398 14.9293C34.3948 14.9881 34.4053 15.0468 34.4287 15.1013C34.4521 15.1558 34.4878 15.2047 34.5333 15.2445C34.6232 15.3197 34.7853 15.3573 35.0213 15.3573C35.1053 15.3573 35.3061 15.3437 35.6311 15.3149L35.3422 16.6173C35.0208 16.6788 34.6939 16.7096 34.3661 16.7093C33.7154 16.7093 33.2425 16.5898 32.9473 16.3509C32.6522 16.112 32.5049 15.781 32.5055 15.3581C32.5055 15.1586 32.5847 14.6981 32.7432 13.9765L33.3144 11.3653H32.4215Z" fill="#404F55"/>
<path d="M42.9761 13.8561H38.3561C38.3561 13.9257 38.3494 13.9785 38.3494 14.0161C38.3494 14.4481 38.4791 14.7966 38.7383 15.0617C38.8567 15.1892 39.0026 15.2909 39.1659 15.3599C39.3293 15.4289 39.5063 15.4637 39.685 15.4617C40.2971 15.4617 40.7731 15.1598 41.113 14.5561L42.7645 14.8161C42.4436 15.4481 42.0146 15.922 41.4776 16.2377C40.9342 16.5554 40.3074 16.7199 39.6699 16.7121C38.7532 16.7121 38.0084 16.4358 37.4355 15.8833C36.8626 15.3308 36.5759 14.6001 36.5753 13.6913C36.5624 12.8419 36.8343 12.0106 37.3515 11.3185C38.0582 10.3809 39.0662 9.91211 40.3755 9.91211C41.2093 9.91211 41.8727 10.1577 42.3655 10.6489C42.8583 11.1401 43.1044 11.8281 43.1038 12.7129C43.1086 13.0974 43.0658 13.4812 42.9761 13.8561ZM41.423 12.7841C41.4272 12.7041 41.4289 12.6481 41.4289 12.6073C41.4289 12.1273 41.3155 11.7665 41.0887 11.5249C40.9738 11.4049 40.8326 11.3103 40.6751 11.248C40.5176 11.1856 40.3476 11.157 40.1773 11.1641C39.9865 11.1648 39.7978 11.2013 39.622 11.2716C39.4461 11.3418 39.2865 11.4445 39.1525 11.5737C38.8506 11.8462 38.6465 12.2497 38.5401 12.7841H41.423Z" fill="#404F55"/>
<path d="M48.274 14.1114L50.0615 14.3866C49.767 15.145 49.3304 15.7218 48.752 16.117C48.166 16.5148 47.4613 16.7229 46.7418 16.7106C45.8733 16.7106 45.1842 16.464 44.6746 15.9706C44.165 15.4773 43.9113 14.7992 43.9136 13.9362C43.9103 13.2451 44.0684 12.562 44.3764 11.9362C44.6739 11.3197 45.1595 10.8029 45.77 10.453C46.3837 10.0941 47.091 9.90673 47.8112 9.91223C48.6159 9.91223 49.2579 10.112 49.7373 10.5114C50.2166 10.9109 50.4866 11.4368 50.547 12.089L48.794 12.2666C48.7514 11.9034 48.6346 11.6368 48.4437 11.4666C48.2398 11.2905 47.9711 11.1982 47.6961 11.2098C47.3273 11.2144 46.9732 11.3483 46.7015 11.5858C46.3935 11.8386 46.1569 12.2168 45.9917 12.7202C45.8349 13.1777 45.7516 13.6551 45.7448 14.1362C45.7448 14.5197 45.8433 14.8152 46.0404 15.0226C46.132 15.123 46.2455 15.203 46.3731 15.2569C46.5007 15.3109 46.6392 15.3374 46.7788 15.3346C47.0915 15.3282 47.3926 15.2204 47.6322 15.029C47.9078 14.8253 48.1217 14.5194 48.274 14.1114Z" fill="#404F55"/>
<path d="M51.2375 13.861C51.2375 12.6578 51.5937 11.6978 52.306 10.981C53.0183 10.2642 53.9546 9.90661 55.1149 9.90821C56.1229 9.90821 56.9086 10.1719 57.472 10.6994C58.0353 11.2269 58.3179 11.9373 58.3195 12.8306C58.3384 13.8343 57.9603 14.8081 57.2603 15.5586C56.5491 16.3266 55.6019 16.7106 54.4186 16.7106C53.8265 16.7216 53.2405 16.5956 52.7109 16.3434C52.2344 16.1172 51.8453 15.7532 51.5995 15.3034C51.358 14.8576 51.2337 14.3626 51.2375 13.861ZM56.4892 12.6074C56.4892 12.1914 56.3618 11.8581 56.107 11.6074C55.9795 11.4826 55.8259 11.3847 55.6562 11.3199C55.4865 11.2552 55.3044 11.225 55.1217 11.2314C54.7364 11.2271 54.3616 11.3513 54.0624 11.5826C53.7516 11.8183 53.51 12.1589 53.3375 12.6042C53.1769 12.9974 53.0899 13.4144 53.0805 13.8362C53.0805 14.3013 53.2132 14.6703 53.4786 14.9434C53.6048 15.0763 53.7595 15.1816 53.9323 15.2523C54.1051 15.323 54.2919 15.3574 54.4799 15.353C54.9839 15.353 55.4078 15.1471 55.7517 14.7354C56.2417 14.1519 56.4864 13.4426 56.4858 12.6074H56.4892Z" fill="#404F55"/>
<path d="M60.4221 10.0632H62.265L60.837 16.5576H58.9966L60.4221 10.0632ZM60.9613 7.59277H62.8043L62.4574 9.18237H60.6144L60.9613 7.59277Z" fill="#404F55"/>
<path d="M64.1013 10.063H65.8476L65.6679 10.9062C66.032 10.5925 66.4445 10.3338 66.8909 10.139C67.2698 9.98628 67.6773 9.90845 68.0887 9.91018C68.6487 9.91018 69.0906 10.063 69.4143 10.3686C69.7379 10.6742 69.8995 11.0798 69.8989 11.5854C69.8989 11.8131 69.8284 12.2454 69.6873 12.8822L68.8851 16.5574H67.0421L67.851 12.8694C67.9714 12.319 68.0313 11.991 68.0308 11.8854C68.0363 11.7882 68.0206 11.691 67.9848 11.5998C67.9489 11.5087 67.8937 11.4256 67.8225 11.3558C67.7436 11.289 67.6516 11.2376 67.5519 11.2047C67.4522 11.1717 67.3466 11.1578 67.2412 11.1638C66.9713 11.1638 66.6717 11.2718 66.3424 11.4878C66.011 11.7054 65.7436 12.0001 65.5654 12.3438C65.4282 12.5966 65.2739 13.1123 65.1025 13.891L64.5187 16.5574H62.6758L64.1013 10.063Z" fill="#404F55"/>
</svg>
