<svg width="204" height="58" viewBox="0 0 204 58" fill="none" xmlns="http://www.w3.org/2000/svg">
<path d="M50.998 26.8173V29.9416C50.8572 29.9532 50.1024 30.0151 48.5948 30.0151C47.3382 30.0151 46.4284 29.9629 46.1122 29.9416V26.8135C41.261 27.0165 37.638 27.8188 37.638 28.7758C37.638 29.7328 41.259 30.5351 46.1122 30.7381V30.7343C46.4243 30.7497 47.3096 30.7826 48.5724 30.7826C50.1514 30.7826 50.8592 30.7439 50.998 30.7343V30.7401C55.8389 30.5332 59.4517 29.7347 59.4517 28.7777C59.4517 27.8207 55.8409 27.0223 50.998 26.8154V26.8173Z" fill="#404F55"/>
<path d="M48.8784 10.1655C37.9032 10.1655 29.0047 18.5987 29.0047 29.0001C29.0047 39.4014 37.9032 47.8346 48.8784 47.8346C59.8536 47.8346 68.7521 39.4014 68.7521 29.0001C68.7521 18.5987 59.8536 10.1655 48.8784 10.1655ZM51 31.5037V40.4725H46.1142V31.5037C40.6245 31.2621 36.4935 30.2316 36.4935 28.9962C36.4935 27.7608 40.6225 26.7303 46.1142 26.4925V23.695H39.3557V19.4281H57.7524V23.695H50.9939V26.4925L50.9979 26.4964C56.4815 26.7361 60.6023 27.7685 60.6023 29.0001C60.6023 30.2316 56.4815 31.2659 50.9979 31.5037H51Z" fill="#404F55"/>
<path d="M85.6331 20.5938V25.1178H90.2721V28.5127H85.6004V35.3954C85.6004 36.915 86.4858 37.6574 87.7832 37.6574C88.432 37.6574 89.1827 37.464 89.7967 37.1721L90.9575 40.5342C89.7661 40.9846 88.7747 41.1799 87.514 41.2128C83.8644 41.3423 81.4776 39.3722 81.4776 35.3954V28.5127H78.3401V25.1178H81.4776V21.0152L85.6351 20.5938H85.6331ZM165.615 24.9051L165.921 26.7456C167.219 24.7736 168.957 24.4836 170.662 24.4836C172.368 24.4836 174.071 25.1294 174.991 26.0013L173.116 29.4252C172.264 28.7466 171.48 28.389 170.116 28.389C167.933 28.389 165.921 29.489 165.921 32.4277V40.83H161.762V24.8974L165.615 24.9032V24.9051ZM155.419 31.0125C155.148 28.9438 153.443 27.9095 151.056 27.9095C148.806 27.9095 146.964 28.9458 146.35 31.0125H155.421H155.419ZM146.282 34.276C146.554 36.248 148.363 37.6709 151.295 37.6709C152.829 37.6709 154.842 37.1199 155.797 36.1842L158.455 38.6724C156.682 40.4162 153.783 41.2592 151.225 41.2592C145.43 41.2592 141.982 37.8642 141.982 32.7602C141.982 27.6562 145.462 24.4218 150.919 24.4218C156.376 24.4218 160.06 27.72 159.412 34.2779H146.282V34.276ZM127.937 18.2119V27.0666C129.438 25.226 131.278 24.675 133.19 24.675C137.963 24.675 140.079 27.7452 140.079 32.4335V40.8358H135.919V32.4664C135.919 29.5567 134.316 28.331 132.098 28.331C129.642 28.331 127.939 30.303 127.939 32.6945V40.8396H123.779V18.2177L127.939 18.2138L127.937 18.2119ZM116.888 20.4101V24.9341H121.527V28.329H116.855V35.2117C116.855 36.7313 117.743 37.4737 119.038 37.4737C119.687 37.4737 120.438 37.2804 121.052 36.9884L122.212 40.3505C121.021 40.801 120.03 40.9962 118.769 41.0291C115.119 41.1586 112.732 39.1847 112.732 35.2117V28.329H109.595V24.9341H112.732V20.8316L116.89 20.4101H116.888ZM105.395 31.0106C105.123 28.9419 103.418 27.9076 101.031 27.9076C98.7809 27.9076 96.9388 28.9438 96.3247 31.0106H105.397H105.395ZM96.2574 34.274C96.5287 36.246 98.3382 37.669 101.27 37.669C102.804 37.669 104.817 37.118 105.772 36.1822L108.43 38.6704C106.657 40.4143 103.758 41.2572 101.2 41.2572C95.4006 41.2572 91.9571 37.8623 91.9571 32.7583C91.9571 27.6543 95.4373 24.4198 100.89 24.4198C106.343 24.4198 110.027 27.7181 109.383 34.276H96.2574V34.274Z" fill="#404F55"/>
</svg>
